# xmcd CD database file
#
# Track frame offsets:
#	150
#	17872
#	44787
#	65696
#	75656
#	94089
#	116318
#	135806
#	155025
#	175113
#	189859
#	209726
#	225758
#	243803
#	261658
#	279929
#	297682
#	308951
#	317118
#
# Disc length: 4483 seconds
#
# Revision: 1
# Processed by: cddbd v1.5.2PL0 Copyright (c) Steve Scherf et al.
# Submitted via: CDex 1.51
#
DISCID=0f118113
DTITLE=Various Artist - The Great Stupa CD2
DYEAR=2003
DGENRE=New Age
TTITLE0=Emmylou Harris, K. Rhodes, B. Nielson Chapman - Send Me the Sun
TTITLE1=Leonard Cohen - Closing Time
TTITLE2=Joe Ely - Dig All Night
TTITLE3=Willie Nelson - One Day at a Time
TTITLE4=Robben Ford - Deaf, Dumb and Blind
TTITLE5=Jonah Smith - Seems Like Yesterday
TTITLE6=David Nichtern f. Michael Brecker - Midnight at the Oasis
TTITLE7=Steve Bush - It's All Right to Suffer
TTITLE8=Jerry Granelli - Boogie Stop Shuffle
TTITLE9=John Campbelljohn - Martha Mae
TTITLE10=Kimmie Rhodes - Love and Happyness
TTITLE11=Flatlanders - Now is Now Again
TTITLE12=Jimmie La Fave - Glorious Day
TTITLE13=Matt Jones - It's About Time
TTITLE14=Peter Rowan and the Rowan Brothers - Faith, Love and Devotion
TTITLE15=Beausoleil - Jusqu'a'la Nuit (Until the Night)
TTITLE16=Jimmie Dale Gilmore - My Mind Got a Mind of it's Own
TTITLE17=Allen Ginsberg - A Western Ballad
TTITLE18=The Ginsberg Remix Project - by Jens Wojnar and Willsingh Wilson
EXTD=YEAR: 2003
EXTT0=
EXTT1=
EXTT2=
EXTT3=
EXTT4=
EXTT5=
EXTT6=
EXTT7=
EXTT8=
EXTT9=
EXTT10=
EXTT11=
EXTT12=
EXTT13=
EXTT14=
EXTT15=
EXTT16=
EXTT17=
EXTT18=
PLAYORDER=
